<?xml version="1.0" encoding="UTF-8" standalone="no"?>
<!-- Generator: Adobe Illustrator 13.0.2, SVG Export Plug-In . SVG Version: 6.00 Build 14948)  -->

<svg
   xmlns:dc="http://purl.org/dc/elements/1.1/"
   xmlns:cc="http://creativecommons.org/ns#"
   xmlns:rdf="http://www.w3.org/1999/02/22-rdf-syntax-ns#"
   xmlns:svg="http://www.w3.org/2000/svg"
   xmlns="http://www.w3.org/2000/svg"
   xmlns:sodipodi="http://sodipodi.sourceforge.net/DTD/sodipodi-0.dtd"
   xmlns:inkscape="http://www.inkscape.org/namespaces/inkscape"
   version="1.1"
   id="soldiers_xA0_Image_1_"
   x="0px"
   y="0px"
   width="201.132px"
   height="202.416px"
   viewBox="0 0 201.132 202.416"
   style="enable-background:new 0 0 201.132 202.416;"
   xml:space="preserve"
   inkscape:version="0.48.4 r9939"
   sodipodi:docname="soldier.svg"><metadata
     id="metadata27"><rdf:RDF><cc:Work
         rdf:about=""><dc:format>image/svg+xml</dc:format><dc:type
           rdf:resource="http://purl.org/dc/dcmitype/StillImage" /></cc:Work></rdf:RDF></metadata><defs
     id="defs25" /><sodipodi:namedview
     pagecolor="#ffffff"
     bordercolor="#666666"
     borderopacity="1"
     objecttolerance="10"
     gridtolerance="10"
     guidetolerance="10"
     inkscape:pageopacity="0"
     inkscape:pageshadow="2"
     inkscape:window-width="785"
     inkscape:window-height="613"
     id="namedview23"
     showgrid="false"
     inkscape:zoom="1.6488538"
     inkscape:cx="124.57942"
     inkscape:cy="90.596501"
     inkscape:window-x="0"
     inkscape:window-y="25"
     inkscape:window-maximized="0"
     inkscape:current-layer="soldiers_xA0_Image_1_" /><path
     inkscape:connector-curvature="0"
     id="path5"
     d="m 166.391,92.085 c -2.421,-0.251 -3.239,-2.061 -4.904,-3.045 -6.131,-2.379 -10.851,4.917 -15.363,0.758 0.439,-1.727 2.307,-1.98 4.486,-1.913 4.173,-4.102 17.538,-2.788 15.781,4.2 z"
     style="fill-rule:evenodd" /><path
     inkscape:connector-curvature="0"
     id="path7"
     d="m 140.626,93.181 c -2.062,0.538 -1.915,-1.069 -3.452,-1.042 -3.056,0.854 -6.915,5.168 -10.434,2.319 -0.976,-2.137 2.133,-1.918 4.005,-2.911 3.795,-2.009 9.042,-5.955 9.881,1.634 z"
     style="fill-rule:evenodd" /><path
     inkscape:connector-curvature="0"
     id="path9"
     d="m 152.537,91.38 c 0.33,0.005 0.66,0.01 0.989,0.015 2.224,0.282 2.121,2.821 2.904,4.501 1.904,2.217 7.043,1.296 8.356,4.087 -1.104,2.885 -5.205,2.68 -5.057,6.856 -4.627,0.563 -2.643,-4.846 -1.387,-6.458 -1.191,-2.26 -7.286,0.24 -7.381,-3.083 -0.053,-1.562 2.021,-0.934 2.504,-1.943 -0.419,-1.215 -1.118,-2.163 -0.928,-3.975 z"
     style="fill-rule:evenodd" /><path
     inkscape:connector-curvature="0"
     id="path11"
     d="m 141.518,99.632 c -1.086,3.071 -3.934,4.324 -4.576,7.855 -2.599,-0.138 -2.984,-3.408 -1.409,-4.975 -1.035,-2.333 -3.907,0.146 -6.429,-0.591 -1.034,-1.961 0.423,-3.308 1.065,-4.936 1.682,-0.439 3.383,1.613 5.911,2.07 1.928,0.349 4.354,-1.528 5.438,0.577 z"
     style="fill-rule:evenodd" /><path
     inkscape:connector-curvature="0"
     id="path13"
     d="m 108.806,101.615 c 1.154,0.018 2.311,0.034 3.466,0.052 0.251,3.495 6.575,1.101 8.873,2.609 0.302,4.332 -3.145,4.805 -4.567,7.36 -3.053,-0.399 -1.338,-2.523 -0.922,-4.471 -1.966,-0.351 -2.01,1.279 -3.976,0.929 -0.543,-2.562 -2.294,-3.953 -2.874,-6.479 z"
     style="fill-rule:evenodd" /><path
     inkscape:connector-curvature="0"
     id="path15"
     d="m 90.391,107.773 c 3.542,-0.011 5.902,2.01 9.399,0.638 1.885,1.527 0.869,5.394 -1.568,5.423 0.281,1.19 0.678,2.271 0.436,3.968 -3.267,0.567 -3.642,-1.669 -3.398,-4.507 -1.207,-2.187 -6.665,-1.943 -4.869,-5.522 z"
     style="fill-rule:evenodd" /><path
     style="fill-rule:evenodd"
     d="m 200.46875,0 c -9.749,0.17 -18.50625,1.4765 -27.28125,2.0625 -4.258,0.285 -8.25825,1.72825 -12.40625,2.28125 -5.488,0.73 -11.20275,0.247 -16.84375,1.25 -2.209,0.393 -4.21775,1.503 -6.46875,1.875 -7.434,1.232 -15.29075,1.982 -22.84375,3.625 -7.199,1.565 -14.122,4.00075 -21.375,5.59375 -7.433,1.631 -14.733,2.892 -21.875,5.125 -6.939,2.168 -14.08125,4.097 -20.40625,6.625 -7.248,2.899 -14.4445,7.4365 -21.9375,11.5625 -1.070099,0.589488 -2.938667,1.963553 -4.062983,2.451445 l 37.085165,49.535576 4.852818,13.075479 -1.34375,2.34375 c 0.02163,0.001 0.04081,-0.001 0.0625,0 -0.09511,0.66093 -0.09828,1.24741 -0.0625,1.78125 0.0013,0.0198 -0.0015,0.0429 0,0.0625 l 0.9375,2.78125 c 1.163745,1.76705 3.067215,2.79118 3.9375,4.84375 0.585,7.133 -3.07725,14.13725 -1.28125,20.78125 1.84,2.117 6.39875,1.56375 8.84375,3.09375 1.571,1.872 -1.66725,1.9915 -1.53125,3.9375 -0.242028,1.44147 1.060675,1.38104 1.375,2.28125 l 6.3125,4.65625 1.03125,3.125 c 0.01053,1.7e-4 0.02072,-1.7e-4 0.03125,0 0.0031,0.044 -0.0022,0.0816 0,0.125 0.207045,4.08592 -3.564223,5.57749 -1.1875,9.15625 l 0.03125,0.0313 c 0.01391,0.0206 0.01693,0.0417 0.03125,0.0625 l 2.9375,3.03125 c 2.949,4.383 2.24075,9.28125 3.71875,14.90625 -3.937,2.814 -6.78525,6.771 -11.53125,8.75 -2.041,3.928 -6.9935,4.84825 -8.0625,9.78125 3.387,1.491 7.176,1.525 10.875,1.625 11.945,0.326 27.523,0.15475 38.125,0.0937 26.267,-0.148 50.452,-0.48825 79.75,-0.78125 0.507,-12.38 0.2295,-24.49325 0.0625,-36.65625 -0.285,-21.005 1.08725,-40.962 0.40625,-61.375 -0.077,-2.207 -0.421,-6.1965 -0.375,-6.9375 0.056,-0.939 1.02825,-1.21675 1.03125,-1.96875 0.005,-1.029 -0.8575,-2.166 -0.9375,-3.5 -0.53,-8.769 1.5555,-19.8865 0.9375,-29.1875 C 199.68325,41.69325 201.47875,22.596 200.46875,0 z M 187,4.65625 c 0.93328,-0.050791 0.9535,0.788625 2,0.625 -0.421,2.911 -2.5215,4.88175 -4.0625,7.34375 -2.451,3.915 -3.503,7.3975 -6.625,10.8125 -1.084,1.184 -1.601,3.50525 -4,2.40625 C 177.6715,18.07675 182.44225,11.763 186.53125,4.75 186.70713,4.7015 186.86667,4.663506 187,4.65625 z m 5.46875,0.1875 c 0.826,0.012 1.64175,0.01925 2.46875,0.03125 -2.332,8.154 -7.61575,13.264 -10.71875,20.625 -1.153,-0.017 -2.2835,-0.0455 -3.4375,-0.0625 3.673,-7.107 7.9775,-13.52275 11.6875,-20.59375 z m -10.40625,0.25 c 0.14627,0.00411 0.31137,0.046 0.5,0.09375 -1.144,4.127 -4.01,7.62325 -6.125,11.28125 -2.046,3.537 -3.04775,8.55425 -7.09375,10.28125 0.48,-2.923 2.23975,-5.68175 4.09375,-8.84375 0.441,-0.751 1.81425,-1.9165 2.03125,-2.4375 0.107,-0.254 -0.74775,-0.917 -0.46875,-1.5 1.354,-2.852 3.46275,-5.24975 4.59375,-8.34375 1.32125,0.33425 1.44485,-0.5600156 2.46875,-0.53125 z M 174.625,5.5625 c 0.435,0.391 1.10475,0.525 1.96875,0.5 -2.442,6 -5.58625,11.71475 -9.15625,17.21875 -1.017,1.569 -1.06025,5.382 -4.53125,3.875 3.616,-7.504 7.46075,-14.75375 11.71875,-21.59375 z m -4.96875,0.90625 c 0.565,0.184 1.261,0.893 0.5,1 -2.572,5.684 -5.4675,11.1855 -8.6875,16.6875 -0.773,1.322 -1.422,4.59625 -4,3.90625 3.615,-7.67 7.9585,-14.55575 12.1875,-21.59375 z M 158.75,7.78125 c 0.495,0.007 1.004,0.02325 1.5,0.03125 -3.089,8.548 -8.80875,14.39275 -12.71875,22.09375 -1.884,-1.216 0.4155,-4.2145 1.0625,-5.4375 2.441,-4.605 6.49625,-9.99775 8.65625,-15.21875 0.717,-0.266 1.213,-0.76075 1.5,-1.46875 z m 4.9375,0.09375 1,0 c 1.555,0.805 -0.5475,4.25125 -1.5625,5.90625 -1.113,1.819 -2.9915,3.60125 -4.0625,5.40625 -2.179,3.681 -3.6065,9.54025 -8.0625,10.28125 3.549,-7.906 9.2915,-13.52875 12.6875,-21.59375 z m 32.1875,0.46875 c 0.577,-0.072 0.896,0.112 1,0.5 0.11,2.54 -1.43475,5.17525 -2.59375,7.40625 -1.121,2.157 -1.9855,4.792 -3.0625,6.375 -0.808,1.187 -2.263,3.53325 -4.5,2.90625 2.824,-5.972 6.95725,-10.5725 9.15625,-17.1875 z m -41.59375,0.375 c -1.768,4.409 -3.892,8.37325 -6.125,12.78125 -0.564,1.113 -1.12325,2.9115 -2.53125,3.4375 -1.406,-6.52 4.09425,-10.17025 6.15625,-14.78125 -0.053,-1.393 1.237,-1.4005 2.5,-1.4375 z M 148.8125,9.125 c 0.346,2.167 -1.9485,5.602 -4.0625,6.875 0.174,-3.508 1.1565,-6.185 4.0625,-6.875 z M 141.375,11 c -0.661,1.218 1.07375,2.41175 -0.0313,2.46875 -0.66,2.187 -2.909,1.07825 -5,1.40625 -4.33,0.68 -11.27975,3.5425 -12.84375,-0.1875 1.732,-1.822 5.08975,-2.33875 7.96875,-2.84375 3.136,-0.551 6.64625,-0.61875 9.90625,-0.84375 z m -22.4375,3.625 c 0.1938,-0.0096 0.39925,0.009 0.59375,0 -0.224,0.607 -0.648,1.00875 -1.5,0.96875 -0.16125,-0.795 0.32486,-0.939875 0.90625,-0.96875 z m -4.875,0.90625 c 0.496,0.008 1.006,0.02425 1.5,0.03125 0.56,0.594 0.5225,1.74975 0.4375,2.96875 -5.903,-0.072 -12.932,4.52975 -16.875,1.71875 3.65,-2.942 10.5975,-2.48875 14.9375,-4.71875 z M 120.5,16.125 c 1.337,0.47 -0.53025,1.72775 -0.53125,2.46875 -1.49,-0.627 0.37825,-1.88575 0.53125,-2.46875 z m 75.75,0.15625 c 1.354,3.75 -0.67875,8.33275 -4.09375,8.84375 0.845,-3.488 2.90175,-5.71575 4.09375,-8.84375 z M 121.9375,18.625 c 0.863,1.416 -0.13325,5.18025 -2.53125,4.90625 0.018,-2.496 1.74425,-3.20225 2.53125,-4.90625 z m -26.75,1.5625 c 0.661,0.01 1.30875,0.02125 1.96875,0.03125 -0.328,2.677 -1.3585,4.63025 -2.5625,6.40625 -2.518,-1.527 1.57975,-3.3185 0.59375,-6.4375 z m -3,0.46875 c 0.496,0.007 1.004,-0.007 1.5,0 -0.007,0.494 -0.02325,1.004 -0.03125,1.5 -1.082,0.072 -1.57475,-0.422 -1.46875,-1.5 z m -2.46875,0.9375 c -0.029,1.167 0.8175,1.46175 0.4375,2.96875 -6.233,0.113 -10.14325,2.639 -15.40625,3.75 -0.178,-1.29 -1.4535,-1.522 -1.4375,-3 5.698,-0.998 9.70925,-3.74975 16.40625,-3.71875 z m 34.625,2.03125 c -0.311,2.696 -1.1605,4.819 -3.0625,5.875 -1.212,-2.447 0.6715,-5.519 3.0625,-5.875 z m -26.75,0.5625 c 0.803,-0.128 0.83575,0.49525 1.46875,0.53125 -0.084,2.932 -1.4425,4.54525 -2.5625,6.40625 -3.207,-1.627 0.91775,-4.3405 1.09375,-6.9375 z m 41.875,0.625 c 1.61738,0.039 2.97175,0.4235 3.15625,1.5625 -5.499,0.486 -8.34325,1.73 -14.40625,2.25 -0.253,-2.354 3.886,-2.988 6.5,-3.375 1.252,-0.185 3.13262,-0.4765 4.75,-0.4375 z m -69.875,1.40625 c 0.554354,0.03198 0.664875,0.49975 1.21875,0.53125 -0.822,1.499 -0.9125,3.7605 -1.5625,5.4375 -2.151,-1.465 0.63575,-3.1965 0.09375,-5.9375 0.10025,-0.01588 0.170807,-0.03582 0.25,-0.03125 z m 120.5,1.90625 c 2.18035,-0.01947 4.3325,-0.015 6.46875,0.03125 0.457,1.996 0.55625,4.3525 0.40625,6.9375 -15.575,0.061 -35.84775,2.1805 -50.09375,4.6875 -0.929,-1.211 -0.25325,-3.9715 -0.40625,-5.9375 12.33138,-3.810625 28.36253,-5.582455 43.625,-5.71875 z m -125.75,0.03125 c 0.381,0.931 0.82275,1.80975 0.96875,2.96875 -5.097,0.126 -11.39425,6.843 -14.90625,2.25 3.933,-2.482 9.2935,-3.46875 13.9375,-5.21875 z M 100.5,28.1875 c 1.461,1.633 -1.83875,6.285 -3.59375,7.875 -1.105,-3.107 2.71075,-5.175 3.59375,-7.875 z m 24.25,0.375 c 1.427,2.115 -1.46625,6.33225 -3.03125,5.40625 0.106,-2.739 2.38125,-3.22725 3.03125,-5.40625 z m -9.59375,0.125 c 1.13178,-0.02155 2.2055,0.07525 3.15625,0.28125 -1.365,2.413 -9.83425,4.25425 -11.90625,2.78125 1.57875,-1.93425 5.35466,-2.997859 8.75,-3.0625 z m 27.4375,0.15625 c -0.132,5.681 1.07775,11.43875 1.71875,16.84375 0.955,8.082 0.279,16.22175 3.125,23.34375 0.576,-0.072 0.86575,0.113 0.96875,0.5 16.423,-2.347 31.43975,-3.86975 48.59375,-4.71875 0.893,1.173 -0.5435,3.1345 -0.0625,5.4375 -17.552,0.383 -35.3945,1.5195 -52.0625,4.1875 -3.677,-16.063 -11.16575,-28.3625 -15.21875,-42.8125 4.234,-1 8.5285,-1.96325 12.9375,-2.78125 z M 72.25,30.25 c 2.266,1.203 -0.43375,5.42425 -1.09375,6.90625 C 69.88825,35.15925 71.046,31.372 72.25,30.25 z m 29.71875,0.4375 c 1.144,-0.134 0.5025,1.46225 1.4375,1.53125 -1.783,2.855 -2.2805,7.0015 -5.5625,8.3125 -0.516,-3.302 3.986,-5.56375 4.125,-9.84375 z m 15.96875,2.21875 c 0.2614,-0.0029 0.53406,0.01662 0.8125,0.03125 3.509,12.531 2.8525,29.09375 7.8125,40.21875 4.81,-0.91 9.04625,-2.394 13.90625,-3.25 0.278,1.844 1.1595,3.12475 1.4375,4.96875 C 136.64725,76.493 130.634,77.37875 124.5,78.09375 120.904,62.06975 113.9775,49.265 108.3125,35.25 c 3.58875,-0.385313 5.70397,-2.299838 9.625,-2.34375 z M 92,33.53125 c 1.533,-0.023 1.4495,1.49375 1.4375,2.96875 -3.688,0.431 -8.84325,4.0115 -11.90625,1.8125 C 83.34925,34.9915 88.743,35.37025 92,33.53125 z M 74.6875,33.75 c 1.982,2.171 -0.25,7.909 -2.125,9.375 -1.544,-3.764 1.639,-6.12 2.125,-9.375 z m -27.28125,1.5625 c 0.648,0.186 0.76475,0.90225 1.46875,1.03125 -0.22,1.616 -0.47625,3.1965 -2.03125,3.4375 -0.311,-1.997 0.5175,-2.83875 0.5625,-4.46875 z m 55.96875,0.375 c 0.495,0.007 0.97575,-0.008 1.46875,0 0.577,4.155 3.5375,6.02275 3.8125,10.46875 -3.41,0.172 -5.1365,2.07375 -8.9375,1.84375 0.152,-2.101 -1.2775,-2.68775 -0.9375,-4.96875 2.116,-1.003 5.54175,-0.661 6.96875,-2.375 0.352,-1.968 -1.8545,-1.44025 -3.4375,-1.53125 -0.056,-1.568 1.3615,-1.6225 1.0625,-3.4375 z m 24.71875,0.84375 c -0.085,2.197 1.3715,2.93475 0.9375,5.46875 -1.637,0.326 -3.18075,0.73925 -4.96875,0.90625 -0.593,-1.54 -0.71825,-3.5075 -0.90625,-5.4375 1.436,-0.531 3.0565,-0.8665 4.9375,-0.9375 z m -85.65625,0.6875 c -0.151,1.447 1.0895,1.552 0.9375,3 -4.712,1.345 -7.63375,4.531 -12.46875,5.75 -0.178,-1.291 -1.4525,-1.523 -1.4375,-3 4.897,-1.321 7.05375,-5.48 12.96875,-5.75 z M 77.09375,37.75 c 0.802,-0.128 0.83575,0.49425 1.46875,0.53125 -0.92,3.577 -1.63975,7.34775 -4.09375,9.34375 -0.605,-2.911 1.916,-6.672 2.625,-9.875 z m 113.875,1.21875 c 2.022,1.778 4.37575,3.21525 5.84375,5.53125 -0.055,3.631 -0.10125,7.27525 -0.15625,10.90625 -2.52,-0.647 -2.606,-3.64125 -4.875,-4.53125 -3.452,3.816 -6.21075,8.33175 -9.59375,12.21875 -3.12,-3.966 -6.992,-7.19825 -10.25,-11.03125 -3.882,3.875 -5.03375,10.55575 -10.09375,13.21875 -2.506,-3.262 -2.29925,-9.17175 -5.28125,-11.96875 -4.583,2.146 0.045,13.77 -7.125,13.25 -0.433,-4.62 -0.25425,-9.831 -1.28125,-13.875 3.482,-1.942 2.941,-8.0325 5.125,-11.3125 4.114,1.373 5.9265,4.9945 8.8125,7.5625 3.321,-2.443 4.8525,-6.72225 8.0625,-9.28125 4.76,1.723 6.38525,6.48675 11.78125,7.59375 3.086,-2.686 6.45425,-5.06925 9.03125,-8.28125 z M 50.3125,39.3125 c 0.802,-0.127 0.869,0.49425 1.5,0.53125 0.088,2.1 -0.5055,3.5005 -1.0625,4.9375 -2.079,-0.782 -1.4435,-3.97675 -0.4375,-5.46875 z M 93.90625,39.5 c 3.542,12.823 7.6835,25.05525 10.8125,38.28125 6.227,-1.062 9.44525,-2.30175 14.90625,-3.71875 1.252,1.061 1.84525,2.75275 1.90625,4.96875 C 115.58425,79.93925 110.574,81.829 105.125,83.25 99.674,68.213 91.0805,56.2085 83.9375,42.8125 c 2.567,-1.88 6.03175,-2.8475 9.96875,-3.3125 z m -26.4375,2 c 0.984656,-0.04912 2.2555,0.0825 2.125,1.59375 -0.399,1.676 -3.457,2.233 -5.5,2.875 -1.365,0.429 -4.50075,3.3765 -4.96875,-0.0625 0.534,-0.846 5.865,-4.23775 7.5,-4.34375 0.204,-0.01325 0.515531,-0.04613 0.84375,-0.0625 z M 79.5,42.25 c 2.066,0.109 1.81225,2.461 2.40625,4 -1.576,0.052 -2.18875,1.0965 -3.96875,0.9375 C 77.9105,44.9805 79.207,44.128 79.5,42.25 z m -26.28125,1.4375 c 0.98808,-0.104412 0.792375,0.96025 1.46875,1.15625 0.573,2.265 -1.36825,1.9155 -1.03125,3.9375 -3.336,-0.535 -0.8215,-2.46175 -0.9375,-4.96875 0.19575,-0.06788 0.358846,-0.110084 0.5,-0.125 z M 127,44.9375 c 0.802,-0.127 0.83675,0.49325 1.46875,0.53125 3.074,4.196 6.2735,8.79175 8.6875,14.96875 0.841,2.156 2.991,5.5035 0.875,7.4375 -2.622,0.267 -1.65225,-2.941 -2.90625,-4 -1.457,-2.002 -2.227,-4.685 -3.875,-6.5 -4.53,1.135 1.65075,10.27975 -3.15625,12.34375 C 125.87075,62.22275 124.793,52.9415 127,44.9375 z m -57,2.125 c 2.087,0.254 2.0595,2.55775 2.4375,4.46875 4.758,10.668 9.41975,21.4295 14.34375,31.9375 5.455,-0.747 8.8065,-3.669 13.9375,-4.75 -0.559,2.495 1.1075,2.85275 0.9375,4.96875 -4.982,2.31 -12.31025,4.6595 -17.90625,4.6875 0.379,-1.831 -0.8155,-2.13775 -0.4375,-3.96875 -5.79,-12.268 -14.57625,-21.633 -20.78125,-33.5 C 64.55325,49.13625 67.306,48.1405 70,47.0625 z M 82.375,47.75 c 1.439,0.88 2.08625,2.50375 2.40625,4.46875 -3.213,-0.126 -5.12375,1.092 -6.96875,2.375 -1.365,-0.139 -1.0965,-1.853 -1.9375,-2.5 0.973,-2.684 4.488,-2.73075 6.5,-4.34375 z m -25.96875,0.5625 c 0.55434,0.03113 0.6345,0.498875 1.1875,0.53125 -0.289,1.712 -1.34325,2.6195 -1.53125,4.4375 -3.076,-0.359 -0.6265,-3.9265 0.0625,-4.9375 0.10025,-0.016 0.202059,-0.0357 0.28125,-0.03125 z m -8.21875,0.875 c 1.241,-0.066 1.54775,0.80025 1.96875,1.53125 -2.63,2.987 -7.18275,4.00125 -11.46875,5.28125 0.455,-5.061 6.547,-4.3265 9.5,-6.8125 z m 56.4375,0.375 c 4.031,1.457 5.2915,5.5975 9.3125,7.0625 1.746,5.135 4.34975,9.4385 5.71875,14.9375 -4.24,-1.414 -5.48825,-5.71225 -8.28125,-8.53125 -4.187,0.714 1.27175,11.39575 -3.65625,11.34375 -2.755,-2.531 -1.26025,-9.1805 -3.78125,-11.9375 0.614,-4.143 -0.8175,-8.837 0.6875,-12.875 z m -45.96875,2.71875 c 1.233791,0.08347 1.332375,1.2625 1.34375,2.53125 -0.825,-0.013 -1.64275,-0.01825 -2.46875,-0.03125 -0.185,-1.195 0.91825,-1.06375 0.53125,-2.46875 0.22575,-0.03612 0.417494,-0.04317 0.59375,-0.03125 z m -7.5625,2.40625 c 4.509,4.839 6.104,11.90575 9.125,17.96875 3.024,6.072 5.68425,12.12175 9.15625,17.46875 4.188,-0.88 5.7075,-4.47725 10.9375,-4.28125 0.535,0.944 0.5955,2.33775 0.9375,3.46875 -4.513,2.221 -9.9995,3.43775 -14.9375,5.21875 -0.572,-1.559 -0.93425,-3.31275 -1.40625,-4.96875 C 59.76825,81.4675 53.0925,74.894 47.4375,67 c -1.855,-2.588 -3.93975,-5.108 -5.34375,-8 1.895,-2.572 5.601,-3.2885 9,-4.3125 z m 30.6875,0.46875 c 3.57,2.389 5.21325,6.6415 9.78125,8.0625 2.017,5.035 5.75475,8.413 7.71875,13.5 -4.3,0.277 -5.91425,-5.8505 -9.28125,-8.0625 -0.736,0.247 -1.264,0.6905 -2,0.9375 0.296,3.458 3.0415,7.1225 1.8125,10.4375 -2.893,0.195 -2.72575,-4.103 -3.84375,-7 -1.912,-4.952 -5.4935,-10.512 -4.1875,-17.875 z m -20.71875,1.9375 c 0.9735,-0.054 1.83075,0.384 2.34375,1.75 -0.704,1.621 -2.656,1.95925 -4.5,2.40625 -0.269,-1.04 -1.1995,-1.447 -0.9375,-3 1.032,-0.573 2.12025,-1.10225 3.09375,-1.15625 z m 0.78125,5.6875 c 7.205,5.369 12.81225,12.2975 17.03125,20.5625 -3.965,-1.03 -4.6945,-5.1935 -8.3125,-6.5625 -2.491,2.294 0.71975,6.06225 0.84375,9.90625 -4.555,-6.637 -6.9685,-15.36425 -9.5625,-23.90625 z M 196,72.90625 c 0.28704,-0.07233 0.54912,-0.03888 0.875,0.3125 0.046,1.221 0.0478,2.39275 -0.53125,2.96875 -1.66,-0.179 -1.9565,-1.678 -2.4375,-3 1.06625,0.268125 1.61534,-0.160703 2.09375,-0.28125 z m -7.03125,0.21875 c 3.42,-0.277 4.79,3.657 3.875,6 -1.928,-1.382 -3.425,-3.185 -3.875,-6 z M 183,73.53125 c 4.754,2.084 9.00475,7.14075 7.71875,13.46875 -2.118,-0.383 -1.717,-3.16975 -2.375,-4.96875 -1.545,-2.793 -5.24375,-5.908 -5.34375,-8.5 z m -6.9375,0.375 c 0.328,0.005 0.67,0.02625 1,0.03125 5.946,3.01 9.55225,8.292 10.65625,16 -2.896,-6.297 -7.30625,-11.14925 -11.65625,-16.03125 z M 159.84375,75.75 c 2.51391,-0.02278 5.03275,0.3255 7.75,1.5 4.22,4.483 10.62625,9.41725 12.15625,16.53125 0.587,2.73 -1.31425,5.5475 1.34375,7.4375 4.748,-1.856 1.3685,-9.83 0.6875,-11.875 -2.112,-3.166 -3.58225,-6.497 -6.28125,-9.5 -1.083,-1.205 -3.34425,-1.961 -3.40625,-4 6.087,3.232 12.27575,9.70525 13.09375,17.03125 1.516,13.551 -6.83425,24.39875 -11.40625,34.96875 -3.96,9.157 -7.95,17.91275 -12.75,23.59375 -2.612,-0.717 -4.057,-2.55725 -5.375,-4.53125 0.628,-2.203 2.2125,-3.43025 3.0625,-5.40625 -0.269,-3.477 -3.36,-4.26225 -4.875,-6.53125 1.566,-1.906 5.567,0.383 6.5,-2.875 -0.017,-2.754 -2.6365,-0.73625 -4.4375,-1.03125 -1.983,-1.906 -4.36225,-0.73675 -6.90625,-1.59375 2.356,-2.254 3.0725,-4.80225 3.0625,-7.40625 2.793,0.197 5.17475,-0.042 6.96875,-0.875 0.392,-3.473 -0.70925,-5.512 -3.90625,-5.5 -1.735,0.983 1.42075,2.61575 -0.0313,3.46875 -4.517,-1.399 -8.616,0.9135 -11.375,-0.6875 1.821,-3.396 1.34725,-7.74975 2.15625,-12.34375 0.482,-2.722 2.57375,-5.457 2.59375,-7.875 0.024,-3.374 -2.29375,-5.66075 -3.34375,-8.46875 1.612,-4.634 2.4065,-8.84875 1.6875,-12.84375 4.71875,-0.07 8.84141,-1.149531 13.03125,-1.1875 z m -16,1.125 c 1.64,0.764 1.4295,2.272 0.4375,3.5 -1.145,-0.353 -1.2925,-1.67925 -2.4375,-2.03125 -0.192,-1.37 1.85,-0.45075 2,-1.46875 z m -5.96875,1.90625 c 2.086,0.09 2.45925,1.82025 3.90625,2.53125 -0.918,0.699 -3.56625,-1.04925 -3.90625,-2.53125 z m -4.6875,0.9375 c 0.3866,-0.02061 0.79462,-0.018 1.21875,0 2.845,1.957 4.5005,5.0425 8.3125,6.0625 -0.949,4.106 0.6325,7.1055 2.3125,9.9375 -2.081,8.166 -1.94625,15.86175 -5.28125,22.21875 1.611,2.988 3.73975,5.4605 8.84375,5.0625 -0.299,3.258 -4.51075,5.38425 -2.09375,8.40625 -2.923,7.044 -4.53275,15.44525 -9.71875,20.15625 -3.29,-3.67 1.815,-6.948 1.625,-9.875 -0.238,-3.701 -3.48175,-2.483 -4.34375,-6.5 2.331,-1.102 5.35,0.8075 6.875,2.0625 2.286,-2.027 -1.34,-4.20975 -1.875,-6.46875 -2.804,1.425 -5.711,-0.68575 -8.875,-1.59375 1.647,-2.575 2.09975,-4.89825 1.59375,-7.40625 1.937,0.722 3.88825,1.4175 5.90625,2.0625 3.046,-1.402 0.985,-7.28875 -1.875,-7.46875 -1.836,1.181 1.3185,3.10275 -0.0625,3.96875 -3.986,-4.626 -7.881,3.2495 -11.875,-0.1875 0.264,-2.777 2.19675,-4.647 2.59375,-7.375 0.243,-1.656 -0.1515,-3.33275 0.0625,-4.96875 0.357,-2.709 1.639,-4.95925 1.125,-7.90625 -0.429,-2.453 -3.26,-4.21575 -3.375,-6.46875 -0.152,-2.951 4.13425,-7.222 1.65625,-12.375 2.62238,-0.231 4.54379,-1.199457 7.25,-1.34375 z m 63.59375,0.9375 c 0.493,0.007 0.97375,0.02425 1.46875,0.03125 0.877,1.273 0.41975,4.5095 -1.53125,4.4375 0.924,-1.677 -0.0375,-2.39275 0.0625,-4.46875 z M 118,82.4375 c 2.681,0.652 4.053,2.56125 5.375,4.53125 -2.661,-0.669 -4.732,-1.90325 -5.375,-4.53125 z m 76.25,1.15625 c 1.793,0.21 0.5135,3.414 2.4375,3.5 -0.021,1.32 -0.0415,2.64875 -0.0625,3.96875 -2.215,-0.789 -3.723,-4.85075 -2.375,-7.46875 z M 114.53125,83.875 c 2.73,2.067 4.4865,5.0725 7.8125,6.5625 -1.803,3.857 0.76575,6.8255 2.34375,8.9375 -0.542,2.936 -0.48125,6.465 -1.15625,10.375 -1.372,7.919 -6.794,14.8235 4.25,14.9375 0.278,2.467 -1.5475,2.7705 -1.5625,4.9375 0.367,2.245 2.71825,2.56825 4.40625,3.53125 -3.6,6.679 -5.32175,15.296 -10.71875,20.125 -4.838,-2.241 1.415,-5.26125 0.625,-9.40625 -0.624,-1.508 -2.27125,-1.98625 -4.40625,-2.03125 -0.219,-1.566 0.90325,-1.74575 0.53125,-3.46875 2.447,0.595 4.0175,2.44175 6.4375,0.59375 -0.055,-2.223 -0.97525,-3.59475 -1.90625,-4.96875 -1.882,2.392 -4.2605,1.035 -7.9375,0.375 0.846,-2.411 -0.60725,-4.2355 0.59375,-6.4375 1.596,-0.085 2.09875,0.9165 3.96875,0.5625 0.654,-0.162 0.791,-0.86075 1.5,-0.96875 0.329,-2.921 -0.45325,-4.777 -2.90625,-5 -1.072,-0.097 -0.24925,1.75375 -0.53125,2.46875 -2.433,-1.456 -3.91975,0.49125 -5.46875,1.40625 -0.665,-1.304 -3.2085,-0.8185 -3.9375,-2.0625 1.351,-2.805 0.67,-5.705 1.125,-8.875 0.292,-2.021 1.62875,-3.9475 1.59375,-5.9375 -0.075,-4.244 -3.5985,-6.4755 -4.3125,-10.4375 1.293,0.209 1.37575,1.59725 3.46875,1.03125 2.599,-1.007 4.13375,-3.09275 7.46875,-3.34375 2.479,-0.104 3.7155,2.7105 5.4375,0.5625 -2.518,-7.328 -11.99,-2.458 -15.375,0.75 -0.69,-3.997 1.1025,-7.30825 -0.8125,-11.40625 2.694,-1.414 5.96175,-2.2375 9.46875,-2.8125 z m -13.9375,3.25 c 0.661,0.01 1.34,0.02125 2,0.03125 -0.01,0.66 -0.0212,1.339 -0.0313,2 -1.259,-0.08 -1.92775,-0.77125 -1.96875,-2.03125 z M 95.625,88.53125 c 2.484,-0.296 2.9625,1.36325 3.9375,2.53125 1.983,0.027 3.67625,0.31925 3.40625,2.53125 -2.695,-1.451 -6.83075,-1.4955 -7.34375,-5.0625 z m -3.96875,1.4375 c 3.306,2.484 6.39325,5.15975 10.78125,6.59375 -1.887,4.661 1.8335,7.50975 3.3125,10.46875 -0.785,5.893 -1.08075,12.27925 -3.21875,16.78125 1.385,3.207 3.99975,5.2385 7.84375,6.0625 0.275,2.124 -1.6605,1.9935 -1.5625,3.9375 -0.488,2.423 2.0635,1.89575 1.9375,3.96875 -1.795,7.536 -2.95975,15.7255 -8.21875,19.6875 -3.105,-2.003 0.31975,-4.97625 0.0937,-7.40625 -0.313,-3.335 -2.64175,-3.61325 -4.34375,-6.53125 2.405,-2.68 3.43525,1.42975 5.90625,1.59375 2.614,-2.192 -1.116,-4.54275 -1.875,-6.46875 -2.581,0.281 -5.72625,0.205 -8.40625,-0.625 0.273,-2.373 0.3615,-4.1435 0.5625,-5.4375 2.847,0.466 4.8865,1.688 7.4375,0.125 0.506,-2.927 -0.72425,-4.193 -2.40625,-5 -1.271,0.031 -0.83125,1.8175 -1.53125,2.4375 -3.621,-2.386 -7.993,1.46175 -11.375,-1.15625 -1.633,-2.309 1.92375,-9.7275 1.71875,-14.8125 -0.095,-2.335 -1.664,-5.19675 -1.375,-6.46875 0.474,-2.095 3.834,-4.70675 6.5,-4.84375 1.879,-0.099 3.65125,2.3595 5.90625,1.5625 -0.388,-8.449 -11.5205,-3.09775 -14.8125,-1.21875 -1.391,-3.569 2.38225,-7.458 0.65625,-11.375 1.739,-1.057 5.01075,-0.529 6.46875,-1.875 z m -9.71875,2.3125 c 0.229641,-0.0148 0.46825,-0.0078 0.75,0.03125 -0.01,0.66 0.01,1.30775 0,1.96875 -0.729,-0.269 -1.23975,-0.731 -1.96875,-1 0.099,-0.65175 0.529828,-0.955609 1.21875,-1 z M 76.25,94.1875 c 2.981,-0.129 3.429,2.1705 5.875,2.5625 -1.345,0.474 -5.492,-0.4815 -5.875,-2.5625 z m 118.90625,0.28125 c 2.6706,0.204847 2.06156,5.152812 1.3125,6.96875 -1.748,-1.487 -3.062,-3.9665 -1.875,-6.9375 0.20825,-0.031 0.38446,-0.04491 0.5625,-0.03125 z M 72.25,95.625 c 2.488,2.301 5.65075,3.96175 9.34375,5.09375 -0.446,3.359 0.909,4.9485 1.875,6.9375 -2.164,-0.52 -3.84425,-2.6975 -6.90625,-2.5625 -3.053,0.136 -5.00575,3.51275 -7.96875,3.34375 1.076,-3.937 -0.6705,-7.2695 -1.8125,-10.4375 1.295,-1.348 4.01775,-1.188 5.46875,-2.375 z m 117.34375,1.28125 c 0.66,0.01 1.30775,0.02125 1.96875,0.03125 0.592,1.377 1.4285,2.52775 1.4375,4.46875 -1.358,-1.283 -3.83625,-1.48 -3.40625,-4.5 z m -1.0625,4.4375 c 1.583,0.089 2.1655,1.154 1.9375,3 -1.689,0.005 -3.2895,-1.544 -1.9375,-3 z m 4.21875,0.9375 c 1.41614,-0.28712 3.04844,2.03406 3.625,3.625 -1.796,-0.698 -3.18325,-1.79325 -3.90625,-3.53125 0.0921,-0.0433 0.18684,-0.0746 0.28125,-0.0937 z m -0.8125,4.0625 c 2.07,0.593 3.17725,2.10825 4.90625,3.03125 -0.04,9.213 -0.441,17.469 -0.375,24.25 0.009,0.887 0.7795,2.89875 0.4375,3.96875 -0.666,2.077 -5.19425,4.83575 -7.53125,6.34375 -5.423,3.504 -10.2995,6.591 -18.4375,7.625 8.663,-13.361 15.003,-29.10975 21,-45.21875 z m -108.5,2.3125 c 1.222,1.253 1.45925,3.47775 1.40625,5.96875 -3.34,-1.637 -6.823,-0.78125 -10.875,-2.15625 -0.48,4.043 3.55,3.7415 5.875,5.0625 -1.343,1.451 -3.058,6.9985 0.875,6.9375 1.229,-1.829 0.50075,-8.913 4.09375,-7.875 -0.422,4.257 -1.65625,7.68175 -2.65625,11.34375 -0.193,2.79 3.32725,2.004 2.40625,5.5 -3.398,0.624 -7.10975,-1.87425 -7.96875,2.84375 -2.5,0.313 -3.3975,-0.9425 -4.9375,-1.5625 1.448,-5.67 3.16475,-16.39625 0.34375,-21.78125 0.898,-4.537 7.31925,-5.6115 9.90625,-1.8125 0.983,-0.327 1.34825,-1.31775 1.53125,-2.46875 z m 95.90625,16.75 c 0.1266,0.006 0.26862,0.0337 0.40625,0.0625 0.968,0.951 0.1965,2.34375 -0.0625,3.46875 -0.658,-0.009 -1.30775,-0.0213 -1.96875,-0.0313 -0.91031,-1.17563 -0.27395,-3.58467 1.625,-3.5 z M 89.8125,133.4375 c 0.347123,-0.0194 0.7375,0.007 1.1875,0.0937 0.828,1.221 -1.28275,2.7875 -0.59375,5.4375 0.948,1.519 2.53525,2.40625 4.40625,3.03125 -2.597,6.708 -2.46875,16.2295 -8.21875,19.6875 0.713,-2.617 2.044,-4.59 1.625,-8.375 -0.323,-1.797 -2.70825,-1.59525 -3.40625,-3.03125 0.273,-2.232 3.19075,-1.74025 5.46875,-1.90625 1.048,-1.076 -0.7525,-2.13775 -0.4375,-3.96875 -1.564,0.025 -2.948,-1.3765 -3,0.9375 -1.192,-1.12 -3.49825,-1.1215 -5.90625,-1.0625 1.376,-3.092 -0.635,-6.81 -3.375,-7.5 2.807,-1.325 4.5855,1.38 7.9375,0.125 1.700125,-0.88813 1.882639,-3.33276 4.3125,-3.46875 z m -22.90625,4.09375 0,0.125 0.0625,0.0313 c -0.01822,-0.0514 -0.04344,-0.10563 -0.0625,-0.15625 z m 84.9375,0.375 c 1.34,0.326 2.3005,1.02425 2.9375,2.03125 -1.342,3.45 -1.74625,6.433 -1.15625,10.875 -1.854,1.775 -4.45275,2.79575 -8.46875,2.34375 3.548,-3.718 5.4925,-9.108 6.6875,-15.25 z m -17.375,2.21875 c 0.529,2.874 -2.5305,8.023 -0.6875,12.375 -1.712,1.085 -2.84175,2.747 -5.96875,2.375 3.043,-4.073 4.44925,-9.819 6.65625,-14.75 z m 60.875,2.90625 c 0.496,0.007 0.97275,0.0232 1.46875,0.0313 -0.359,1.978 -0.3615,4.28425 -1.0625,5.90625 -3.475,-0.395 -5.4655,0.771 -8.9375,0.375 2.089,-2.876 6.95925,-2.9045 8.53125,-6.3125 z m -80.25,1.75 c 0.494,0.007 0.97375,0.0242 1.46875,0.0313 -1.146,4.789 -1.3715,7.46825 0.8125,11.40625 -2.358,0.418 -3.33475,2.24 -5.96875,2.375 2.102,-3.703 3.6405,-7.9925 3.6875,-13.8125 z m 77.03125,6.625 c 1.4425,-0.0271 2.8315,0.112 4.0625,0.5625 -0.672,1.526 0.1035,1.41775 -0.0625,3.46875 -1.548,0.915 -4.1065,0.262 -6.4375,0.375 -3.453,0.166 -8.073,1.802 -9.375,-1.125 1.168,-1.843 4.77475,-2.43575 7.46875,-2.84375 1.415,-0.215 2.90125,-0.41037 4.34375,-0.4375 z m -36.5625,1.90625 c 4.408,0.138 9.3885,3.11475 14.8125,2.21875 2.503,-0.414 4.15675,-2.327 6.46875,-1.875 -0.399,1.685 2.02275,0.662 1.46875,2.5 -5.979,1.212 -13.23175,1.09825 -19.84375,1.65625 -0.79,-1.675 -1.47025,-3.457 -2.90625,-4.5 z M 153.78125,155 c 1.04591,0.0226 1.81763,0.71712 1.71875,2.78125 -4.434,0.737 -10.149,1.18175 -16.875,1.71875 -0.399,-1.078 -1.2555,-1.69675 -0.9375,-3.46875 3.54,2.786 7.967,-0.0687 11.875,0.65625 1.05806,-0.65531 2.874,-1.71655 4.21875,-1.6875 z m -20.0625,1.96875 c 1.475,0.192 1.9495,1.345 2.4375,2.5 -4.701,-0.303 -15.3945,5.278 -17.3125,-1.25 3.569,-0.314 10.313,1.342 14.875,-1.25 z m -35.125,0.84375 c 1.12432,-0.0959 1.39175,0.62625 1.90625,1.125 -0.089,1.581 -1.154,2.1635 -3,1.9375 0.007,-1.167 0.8975,-1.45075 0.5625,-2.96875 0.198,-0.05 0.370633,-0.08 0.53125,-0.0937 z m 88.5625,1.4375 c -0.612,2.556 -1.65925,4.622 -3.53125,5.875 -0.531,-1.437 -0.8675,-3.0555 -0.9375,-4.9375 1.578,-1.342 2.62075,-0.2575 4.46875,-0.9375 z m 2.96875,0.0313 c 0.826,0.013 1.674,0.0485 2.5,0.0625 -1.692,4.792 -5.221,7.677 -7.125,12.25 -3.841,-4.177 4.143,-7.7215 4.625,-12.3125 z m -16.34375,0.75 c 0.495,0.006 1.007,0.0232 1.5,0.0313 1.507,3.902 6.37825,4.539 6.28125,10 -2.782,-3.156 -5.86725,-6.03825 -7.78125,-10.03125 z m -57.5,0.375 c 0.58005,3.9e-4 1.09,0.2275 1.53125,0.78125 -2.956,2.986 -9.6735,2.11 -13.9375,3.75 -0.569,-0.75 -0.5765,-2.038 -1.4375,-2.5 2.475,-0.944 4.7345,0.36375 7.4375,0.0937 2.3745,-0.2355 4.66611,-2.12617 6.40625,-2.125 z m 50.5625,0.0313 c 0.33,0.005 0.67,-0.005 1,0 4.086,0.827 6.10625,4.7565 8.28125,7.5625 2.104,2.71 5.4115,5.299 6.3125,9 -2.387,0.204 -2.31325,-1.962 -2.90625,-3.5 -4.303,-4.28 -9.0055,-8.1775 -12.6875,-13.0625 z m -5.9375,0.40625 c 0.33,0.006 0.63875,-0.005 0.96875,0 3.541,1.698 6.1805,4.8875 8.8125,7.5625 1.302,1.327 2.60425,2.69625 3.90625,4.03125 1.241,1.273 3.06125,2.573 3.40625,4.5 -3.273,0.085 -3.74025,-2.57225 -4.90625,-4.53125 -4.829,-3.119 -8.5975,-7.2425 -12.1875,-11.5625 z m -7.4375,0.375 c 0.66,0.01 1.30875,0.0203 1.96875,0.0313 -0.185,3.902 -3.09775,7.1455 -4.59375,10.3125 -1.22,2.58 -1.4885,6.161 -5.0625,6.375 2.034,-6.117 5.9315,-10.31675 7.6875,-16.71875 z M 148,161.625 c 0.494,0.008 1.005,0.0252 1.5,0.0313 -0.985,6.023 -4.87925,9.042 -6.65625,14.25 -3.042,-4.554 3.80125,-9.51025 5.15625,-14.28125 z m 48.03125,0.71875 c 0.224,3.576 -2.88275,6.38875 -4.59375,8.84375 -1.57,2.255 -3.041,6.492 -6.5,5.375 0.024,-2.49 1.742,-3.2365 3.5,-3.9375 0.484,-2.222 2.3695,-3.565 3.5625,-5.375 1.111,-1.684 1.39225,-4.69825 4.03125,-4.90625 z M 140.625,162.5 c 1.06112,-0.0583 2.35562,0.13125 3.40625,0.0625 -0.838,2.319 -2.1245,4.159 -3.0625,6.375 -1.267,-1.372 -1.09325,-4.15475 -1.90625,-5.96875 0.35625,-0.32363 0.92583,-0.43374 1.5625,-0.46875 z m -40.6875,0.875 c 0.847,-0.006 1.27575,0.40725 1.46875,1.03125 -0.562,2.102 -3.28475,1.942 -5.46875,2.375 -1.344,0.478 -3.88975,2.33825 -5.46875,0.90625 -0.397,-1.705 1.455,-0.78075 2,-0.96875 2.52,-0.865 5.22675,-2.28875 7.46875,-3.34375 z m 24.28125,0.375 c 0.496,0.006 0.97475,0.0232 1.46875,0.0313 2.171,1.942 4.06175,4.05425 6.34375,6.03125 2.057,1.783 5.2,3.1235 6.875,5.0625 0.775,0.896 1.75925,2.46575 1.40625,3.96875 -2.15,-0.188 -2.24525,-2.38525 -3.40625,-3.53125 -4.101,-4.044 -10.0895,-6.1175 -12.6875,-11.5625 z m 33.65625,0 c 2.465,2.417 0.995,6.40725 -1.125,9.90625 -1.217,2.01 -2.97925,4.649 -5.03125,3.875 1.552,-5.103 5.39525,-7.86025 6.15625,-13.78125 z m -26.625,0.0625 c 3.1067,0.0521 6.30937,3.35469 7.21875,6.59375 -3.227,-1.584 -5.1105,-4.4675 -7.8125,-6.5625 0.20569,-0.0264 0.38664,-0.0347 0.59375,-0.0313 z m -14,0.8125 c 0.496,0.008 1.004,0.0242 1.5,0.0313 -0.973,4.284 -0.88125,7.76775 -3.15625,11.34375 -0.104,3.079 -0.69225,5.618 -3.53125,5.875 1.066,-6.442 3.4065,-11.544 5.1875,-17.25 z m -5.4375,0.90625 c 0.606,0.227 1.00775,0.648 0.96875,1.5 -1.608,3.426 -2.9155,10.01725 -4.6875,14.78125 -3.069,-1.818 0.81625,-8.181 1.15625,-11.375 0.02,-1.319 0.0425,-2.6195 0.0625,-3.9375 0.885,-0.261 2.07,-0.23775 2.5,-0.96875 z m 49.875,0.84375 c 0.28409,-0.0675 0.59438,0.125 0.59375,0.4375 3.873,2.908 7.102,6.41925 10.25,10.03125 -5.984,-0.372 -6.07,-6.4245 -10.75,-8.0625 -0.031,-0.786 0.26225,-1.895 -0.46875,-2 0.0495,-0.23288 0.20454,-0.36573 0.375,-0.40625 z m -54.875,0.5625 c -0.349,2.489 -0.2555,5.41825 -2.0625,6.40625 0.66,-3.536 -2.7545,-6.45925 2.0625,-6.40625 z m 15.84375,1.25 c 4.863,2.925 7.87975,7.63275 13.21875,10.09375 -0.089,1.414 -2.06775,0.8745 -3.46875,0.9375 -1.253,-5.616 -8.985,-4.94425 -9.75,-11.03125 z m -23.78125,0.625 c 2.663,0.018 4.10325,1.23725 3.90625,4.03125 -2.155,-0.51 -2.79825,-2.50525 -3.90625,-4.03125 z m 96.0625,1.4375 c 2.714,2.276 -1.46475,5.79625 -3.09375,6.90625 -1.731,-0.534 2.82675,-4.76425 3.09375,-6.90625 z m -101.03125,0.46875 c 3.553,-0.027 5.87525,5.33875 9.78125,6.59375 -0.381,1.507 0.85075,1.46175 0.46875,2.96875 -4.132,-2.494 -6.545,-6.6535 -10.25,-9.5625 z m 26.75,1.375 c 0.13624,-0.0196 0.31125,-0.005 0.46875,0.0313 -0.509,1.988 -0.9725,4.01225 -2.0625,5.40625 -0.15094,1.04156 -0.44978,-5.14367 1.59375,-5.4375 z m 39.0625,1.09375 c 1.382,0.284 0.8845,2.412 1.4375,3.5 -1.705,-0.427 -2.10375,0.8755 -2.96875,-0.0625 0.271,-1.393 1.22225,-2.0785 1.53125,-3.4375 z m 3.8125,0.21875 c 1.17235,0.0916 2.133,2.30625 3.0625,2.875 -0.229,1.102 -2.43775,0.1585 -3.46875,0.4375 -0.27,-0.875 0.6545,-2.89375 -0.4375,-2.96875 0.29325,-0.24844 0.57321,-0.36488 0.84375,-0.34375 z m -71.1875,0.75 c 0.494,0.007 1.005,0.0242 1.5,0.0313 1.547,4.027 6.03725,5.19425 7.78125,9.03125 -4.199,-0.966 -5.5015,-4.7345 -8.8125,-6.5625 0.222,-1.191 -0.89775,-1.106 -0.46875,-2.5 z m 31.6875,0.96875 c 2.161,1.157 4.642,1.99125 5.375,4.53125 -2.033,-0.42 -2.55875,0.7325 -4.46875,0.4375 -0.654,-1.316 -0.52425,-3.38775 -0.90625,-4.96875 z m -2.5,2.4375 c 1.371,-0.193 0.4185,1.851 1.4375,2 -0.074,1.264 -1.65475,0.98375 -2.96875,0.96875 0.489,-1.004 1.04325,-1.96575 1.53125,-2.96875 z m 63.84375,2.46875 c 4.262,-0.072 8.065,0.289 10.875,1.625 -0.389,5.465 0.444,12.20675 -0.75,16.84375 -9.474,-1.427 -17.123,-0.32125 -25.75,-0.40625 1.178,-3.459 4.87825,-4.7955 7.03125,-7.3125 3.049,-3.561 5.17775,-7.594 8.59375,-10.75 z m -22.28125,0.15625 c 4.457,0.021 12.8905,-0.046 17.3125,0.25 -4.969,6.276 -10.054,12.45475 -16.125,17.59375 -8.381,-0.149 -11.8195,-0.0395 -19.3125,0.1875 4.98,-7.104 12.924,-11.15725 18.125,-18.03125 z m -7.875,0.1875 c 0.99196,-0.0251 1.95319,0.0326 2.90625,0.21875 -5.769,5.787 -12.13775,10.9555 -17.59375,17.0625 -4.906,0.246 -9.96675,0.403 -15.84375,0.75 0.342,-2.317 3.71525,-4.22175 6.03125,-6.34375 1.64,-1.501 3.04525,-3.418 5.03125,-4.875 1.774,-1.299 4.31425,-2.88775 5.53125,-5.34375 4.98063,0.33719 9.63902,-1.35992 13.9375,-1.46875 z m -62,1.71875 c 0.659,0.009 1.34,0.0213 2,0.0313 -0.09,0.575 0.08475,0.886 0.46875,1 -0.405,1.131 -3.08075,0.43175 -2.46875,-1.03125 z m 41.3125,0.15625 c 0.56716,-0.023 1.1705,-0.022 1.78125,0 -5.197,5.704 -11.57275,10.20675 -16.59375,16.09375 -3.888,-0.993 -8.606,1.4705 -12.875,-0.1875 5.311,-5.084 10.8645,-9.94 16.5625,-14.625 4.11513,-0.0131 7.15487,-1.12046 11.125,-1.28125 z m -20.96875,2.5625 c 0.92078,-0.0149 1.8855,0.006 2.90625,0.0937 -7.757,5.078 -9.92175,15.938 -24.96875,13.5 4.564,-4.514 10.1865,-7.94725 14.5625,-12.65625 2.36775,-0.45 4.73766,-0.89278 7.5,-0.9375 z m -12.96875,1.34375 c -4.312,4.438 -9.61125,7.8625 -14.03125,12.1875 -3.084,-0.662 -5.7275,1.252 -7.9375,-0.125 0.088,-0.579 0.917,-0.40175 1.5,-0.46875 1.029,-0.111 0.17125,-2.18075 1.03125,-2.46875 6.129,-3.402 9.6905,-9.45 19.4375,-9.125 z"
     transform="translate(-1.7101459e-6,0)"
     id="path21"
     inkscape:connector-curvature="0"
     sodipodi:nodetypes="ccccccccccccccccccccccccccscccccccccccccccccscccccscccccscccccccsccccccccccccccccccccccccccccccccccccscccccsccscccccccccccccccccccccccccccccccsccssccsssccssccccsccccccccscsccscccccccccccccsccsccccccscccccccccccccccccccccccccccccccccccccccccccccccccccccscccccsccccscsccscccsccccccccccccccccccscccscccscccccscccccscccscccccccccccsccccccscccscscccscccscccccccccccccccscccccccccccccccccccsccccccccccccccccccccccccccccccscccccccccccccccccccccccccccccccccccccccccccccccccccccsccccccccccccccccccccscccscccsccscccccccccccccccccccccccccccccccscccccccccccsccccccccccccscccccccccccccccccccccccscccccsccccccscccccccccccccccccccccccccccccccscccccccccccccccccccccccccccsscccsccccccccccccccccccccccccccccccccsccccscccccccccccccccccsccscccccccccccccccccccccccccccccccccsccccccsccccsccccsscccsccccccccccccccccccccccccccccc" /></svg>