<?xml version="1.0" encoding="UTF-8" standalone="no"?>
<!-- Created with Inkscape (http://www.inkscape.org/) -->

<svg
   xmlns:dc="http://purl.org/dc/elements/1.1/"
   xmlns:cc="http://creativecommons.org/ns#"
   xmlns:rdf="http://www.w3.org/1999/02/22-rdf-syntax-ns#"
   xmlns:svg="http://www.w3.org/2000/svg"
   xmlns="http://www.w3.org/2000/svg"
   xmlns:sodipodi="http://sodipodi.sourceforge.net/DTD/sodipodi-0.dtd"
   xmlns:inkscape="http://www.inkscape.org/namespaces/inkscape"
   id="svg2474"
   sodipodi:version="0.32"
   inkscape:version="0.48.4 r9943 custom"
   width="121.9"
   height="145.70033"
   version="1.0"
   sodipodi:docname="lady.svg"
   inkscape:output_extension="org.inkscape.output.svg.inkscape">
  <metadata
     id="metadata2479">
    <rdf:RDF>
      <cc:Work
         rdf:about="">
        <dc:format>image/svg+xml</dc:format>
        <dc:type
           rdf:resource="http://purl.org/dc/dcmitype/StillImage" />
      </cc:Work>
    </rdf:RDF>
  </metadata>
  <defs
     id="defs2477">
    <inkscape:perspective
       sodipodi:type="inkscape:persp3d"
       inkscape:vp_x="0 : 526.18109 : 1"
       inkscape:vp_y="0 : 1000 : 0"
       inkscape:vp_z="744.09448 : 526.18109 : 1"
       inkscape:persp3d-origin="372.04724 : 350.78739 : 1"
       id="perspective2481" />
  </defs>
  <sodipodi:namedview
     inkscape:window-height="786"
     inkscape:window-width="919"
     inkscape:pageshadow="2"
     inkscape:pageopacity="0.0"
     guidetolerance="10.0"
     gridtolerance="10.0"
     objecttolerance="10.0"
     borderopacity="1.0"
     bordercolor="#666666"
     pagecolor="#ffffff"
     id="base"
     showgrid="false"
     inkscape:zoom="2.68"
     inkscape:cx="114.91137"
     inkscape:cy="36.139827"
     inkscape:window-x="224"
     inkscape:window-y="34"
     inkscape:current-layer="svg2474"
     inkscape:window-maximized="0" />
  <path
     style="fill:#000000"
     d="m 40.03125,0.75 c -1.706038,-0.001506 -3.27779,0.0894061 -4.3125,0.28125 -4.646084,0.8614231 -10.28125,4.219735 -10.28125,6.125 0,0.846337 -1.008333,1.40625 -2.5,1.40625 -1.375,0 -3.413811,0.9450607 -4.5625,2.09375 -2.674679,2.674679 -5.87789,9.673736 -5.90625,12.9375 -0.03019,3.474956 2.516954,6.777565 5.5,7.15625 2.402399,0.304974 2.414667,0.417601 0.96875,3.1875 -2.145487,4.110043 -1.882651,5.432264 1.875,10.03125 1.843817,2.256646 4.074139,5.512191 4.96875,7.25 0.894612,1.73781 2.181658,3.362636 2.875,3.59375 0.759437,0.253146 1.185509,1.783356 1.03125,3.84375 -0.32124,4.290722 1.269924,7.192249 2.71875,4.9375 0.736656,-1.146427 1.652333,0.04108 4,5.21875 1.674556,3.693152 3.03125,7.098758 3.03125,7.59375 0,0.494992 -1.0125,1.597025 -2.25,2.4375 -2.023933,1.374599 -2.049247,1.515475 -0.3125,1.375 1.166321,-0.09434 2.156118,0.654557 2.5,1.875 1.274799,4.524293 9.98533,12.46875 13.65625,12.46875 1.164443,0 2.910764,0.9 3.90625,2 1.825452,2.0171 6.166332,2.88716 5,1 -0.345464,-0.55897 -1.027602,-0.79196 -1.5,-0.5 -0.472398,0.29196 -1.175709,-0.46883 -1.5625,-1.6875 -0.557808,-1.7575 0.05842,-2.831796 2.875,-5.25 3.558809,-3.055453 5.676015,-8.208289 5.6875,-13.75 0.0065,-3.14798 0.569097,-3.575003 5.40625,-4.34375 2.34606,-0.372849 3.59375,-0.19572 3.59375,0.53125 0,0.616385 0.48831,0.823617 1.0625,0.46875 0.57418,-0.354867 2.13729,0.06509 3.46875,0.9375 1.33147,0.872408 3.07758,1.59375 3.90625,1.59375 0.82867,0 4.03282,1.115061 7.09375,2.46875 3.96047,1.751506 6.20628,2.218218 7.78125,1.625 2.49482,-0.939677 6.6875,0.277647 6.6875,1.9375 0,0.600182 0.52127,0.76744 1.15625,0.375 0.68907,-0.425868 0.90038,-0.272828 0.5,0.375 -0.36895,0.596976 -0.27788,1.34932 0.21875,1.65625 0.49662,0.306929 1.23844,2.243925 1.625,4.3125 0.38657,2.068575 1.03332,4.2 1.46875,4.75 1.16227,1.468099 0.71575,8.45136 -0.59375,9.28125 -0.6184,0.39192 -1.4058,2.14373 -1.78125,3.875 -0.64319,2.96592 -0.51984,3.13923 2.125,3 1.54385,-0.0813 3.5558,-1.05625 4.5,-2.15625 0.9442,-1.1 1.7317,-1.45042 1.75,-0.78125 0.0183,0.66916 -1.61347,2.86348 -3.625,4.875 l -3.65625,3.65625 -3.59375,-4.25 c -1.97597,-2.34521 -4.60625,-6.12303 -5.84375,-8.375 -1.237497,-2.251978 -2.25,-3.67673 -2.25,-3.1875 0,0.48924 -1.0125,0.01256 -2.25,-1.03125 l -2.25,-1.875 2.125,2.46875 c 1.15499,1.37107 3.488193,4.61624 5.21875,7.1875 1.73057,2.57127 3.71681,5.27127 4.40625,6 0.68945,0.72874 3.725,4.24324 6.75,7.8125 2.86094,3.37567 5.98812,6.91632 7.34375,8.34375 l 0,-2.5 c -0.27792,-0.27051 -0.54838,-0.53545 -0.84375,-0.84375 -1.57531,-1.64426 -2.35792,-3 -1.75,-3 0.0535,0 0.1263,0.004 0.1875,0 l -5.46875,-6.375 6.75,-8.0625 -1.1875,-2.375 -3.6875,2.90625 -3.5625,0.65625 0.375,-2.21875 L 113.5,103.1875 112.84375,92.625 110.0625,82.875 108.21875,80.21875 102.6875,78.125 96.34375,78.65625 92,76.4375 c -1.358674,-0.412983 -2.665806,-1.138005 -2.9375,-1.53125 l -0.03125,-0.03125 -0.875,-0.5 c -0.61427,0.108813 -2.378435,-0.570164 -7.21875,-2.28125 -3.85,-1.361002 -8.155122,-2.488399 -9.5625,-2.5 -1.407379,-0.0116 -3.432379,-0.692491 -4.5,-1.5 -1.067622,-0.807508 -2.725,-1.482508 -3.6875,-1.5 -2.279469,-0.04143 -2.20349,-0.584733 0.75,-6.40625 1.363784,-2.688105 2.770229,-7.075605 3.125,-9.75 0.354771,-2.674395 0.98091,-4.875 1.40625,-4.875 1.207919,0 3.238616,-6.173996 3.125,-9.5 -0.169324,-4.956853 -0.692706,-6.83237 -2.96875,-10.5 -1.19461,-1.925 -2.185444,-4.292161 -2.1875,-5.25 -0.0021,-0.957839 -0.9,-2.281789 -2,-2.96875 -1.1,-0.686961 -2,-1.939247 -2,-2.78125 0,-0.842002 -2.601942,-4.087554 -5.8125,-7.1875 C 51.344517,2.2764431 50.236017,1.6698294 45.125,1.03125 43.571239,0.83712036 41.737288,0.75150647 40.03125,0.75 z m 7.15625,6.4375 c 0.814671,0.014368 1.25,0.5006042 1.25,1.4375 0,0.517541 -1.4625,0.925739 -3.25,0.90625 L 41.9375,9.5 l 2.5,-1.375 c 0.945057,-0.5230984 1.743502,-0.8253867 2.375,-0.90625 0.131562,-0.016846 0.258618,-0.033302 0.375,-0.03125 z M 23.125,11.125 c 1.856003,-0.171149 1.676797,1.084621 -0.65625,2.71875 -1.096501,0.768019 -1.706918,1.699332 -1.34375,2.0625 0.363168,0.363168 0.479166,0.59505 0.25,0.53125 -0.229167,-0.0638 -1.225,-0.310972 -2.1875,-0.5625 -3.189808,-0.833583 -1.4517,-3.472699 3,-4.5625 0.348221,-0.08525 0.672357,-0.16305 0.9375,-0.1875 z m 25.90625,0.46875 c 1.97945,-0.02817 7.734605,3.932305 5.8125,4 -0.496656,0.01749 -0.190762,0.579992 0.6875,1.25 0.952084,0.726326 1.55839,2.580341 1.5,4.59375 -0.054,1.862168 0.466345,3.610258 1.15625,3.875 0.688101,0.264049 1.25,1.526355 1.25,2.8125 0,1.562307 0.920905,2.779587 2.75,3.65625 3.671511,1.759709 4.067286,4.451747 0.875,5.90625 -2.922456,1.33156 -4.665861,5.486199 -3.53125,8.375 0.432038,1.1 0.805093,3.302876 0.84375,4.875 0.0625,2.541849 -0.206364,2.763042 -2.375,2.21875 -1.341293,-0.336643 -2.66897,-0.203804 -2.96875,0.28125 -0.774942,1.253882 5.597873,2.370877 6.78125,1.1875 0.640538,-0.640538 0.57554,-2.35945 -0.1875,-4.90625 -1.518154,-5.067148 -1.502579,-5.15625 0.75,-5.15625 1.054166,0 2.128838,-0.5625 2.40625,-1.25 0.277413,-0.6875 0.550329,1.363843 0.59375,4.5625 0.105831,7.796205 -0.955958,9.569861 -5.40625,9.15625 -1.927946,-0.179184 -3.748514,0.11696 -4.0625,0.625 -0.313986,0.508039 -1.463709,0.90625 -2.53125,0.90625 -1.067541,0 -1.9375,0.45 -1.9375,1 0,0.55 0.688988,1 1.53125,1 0.842261,0 1.808417,0.675 2.125,1.5 0.857842,2.235502 3.282518,1.812457 4.3125,-0.75 0.818854,-2.0372 0.911358,-1.933783 0.96875,1.03125 0.0508,2.62439 -0.444325,3.468434 -2.5,4.25 -4.053805,1.541254 -9.850552,1.143891 -15.09375,-1.03125 -4.780983,-1.983392 -4.804991,-1.990001 -2.5,-0.03125 2.789625,2.370587 8.265026,4.023604 13.40625,4.03125 3.117356,0.0046 3.75,0.35085 3.75,2.0625 0,1.132459 0.45,1.777419 1,1.4375 1.518271,-0.938343 1.194771,0.46148 -0.5,2.15625 -3.316034,3.316035 -1.077585,4.440067 3.21875,1.625 l 2.625,-1.71875 -0.6875,5.8125 c -0.3767,3.205126 -1.101858,6.6475 -1.625,7.625 -1.129466,2.110426 -6.948326,3.214981 -8.84375,1.6875 -1.642535,-1.323682 -5.294944,-1.673182 -4.53125,-0.4375 0.305123,0.4937 1.086882,0.717874 1.71875,0.5 0.631867,-0.217874 1.9125,0.432122 2.875,1.4375 1.13226,1.182702 1.308757,1.800925 0.5,1.78125 -1.814187,-0.04413 -4.820234,-1.852883 -8.0625,-4.84375 -3.189369,-2.94207 -5.742066,-6.921482 -3.59375,-5.59375 0.907374,0.560788 1.064325,0.320048 0.59375,-0.90625 -0.414278,-1.079592 -0.258573,-1.473384 0.40625,-1.0625 0.581196,0.359198 0.815736,1.258643 0.53125,2 -0.332808,0.867285 0.0051,1.139033 0.9375,0.78125 1.843297,-0.70734 1.85157,-1.775834 0,-3.3125 -0.803701,-0.667013 -1.784181,-2.187168 -2.15625,-3.375 -0.664354,-2.120952 -5.109428,-12.287115 -6.15625,-14.0625 -0.293329,-0.49748 -0.04123,-0.579939 0.59375,-0.1875 1.545396,0.955108 1.483136,0.657802 -0.84375,-3.90625 -1.1,-2.157586 -2,-4.496055 -2,-5.1875 0,-0.720182 -0.650626,-0.994177 -1.53125,-0.65625 -1.610501,0.618007 -5.46875,-2.200478 -5.46875,-4 0,-0.640579 0.483166,-0.579334 1.21875,0.15625 1.817421,1.817421 3.825385,1.458614 3.1875,-0.5625 -0.439662,-1.393055 -0.16772,-1.322447 1.34375,0.375 L 34.09375,51.34375 35.75,47.4375 c 0.92672,-2.139085 1.715683,-4.216273 1.71875,-4.625 0.02074,-2.762956 2.325048,-8.25 3.46875,-8.25 0.762085,0 1.661303,-0.870361 2,-1.9375 0.407387,-1.283563 1.694517,-2.045089 3.8125,-2.25 2.307364,-0.223234 3.158932,-0.792019 3.0625,-2.03125 -0.07433,-0.955164 0.814689,-2.005437 2,-2.375 5.077777,-1.583178 4.841871,-5.884301 -0.59375,-10.625 -3.56455,-3.108837 -3.939898,-3.725063 -2.1875,-3.75 z M 37.25,15.625 c 0.325224,-0.03081 0.66122,-0.02196 0.96875,0 1.230121,0.08785 2.265313,0.581605 2.59375,1.4375 0.657474,1.713349 -0.89523,2.042115 -1.90625,0.40625 C 38.531169,16.861856 37.076366,16.656755 35.59375,17 c -1.979251,0.458222 -2.280439,0.385748 -1.15625,-0.375 0.834528,-0.564734 1.836828,-0.907583 2.8125,-1 z m -7.90625,2.9375 c 2.348061,0 2.966795,0.510589 3.40625,2.75 0.691021,3.521367 -0.496881,4.775744 -2.09375,2.21875 C 29.846693,22.234943 29.799359,21.5625 30.5,21.5625 c 0.58712,0 0.775782,-0.495835 0.40625,-1.09375 -0.369532,-0.597915 -1.524572,-0.865174 -2.5625,-0.59375 -1.037928,0.271424 -1.90625,0.09226 -1.90625,-0.40625 0,-0.498509 1.320367,-0.90625 2.90625,-0.90625 z m 14.90625,0 c 0.725158,0 1.027419,0.45 0.6875,1 -0.339919,0.55 0.08004,1 0.9375,1 0.857459,0 1.5625,-0.514583 1.5625,-1.15625 0,-0.641666 0.274189,-0.913311 0.59375,-0.59375 0.319561,0.319561 0.08266,1.509144 -0.53125,2.65625 -0.761429,1.422741 -2.150735,2.113011 -4.34375,2.15625 -2.911656,0.05741 -2.991489,0.155225 -0.96875,0.96875 1.544496,0.621181 2.039235,1.401586 1.59375,2.5625 -0.58824,1.53293 -0.779001,1.525053 -2.03125,-0.1875 -1.319703,-1.804801 -1.375011,-1.775962 -1.9375,0.375 -0.641943,2.454794 -1.939078,2.924832 -2.625,0.96875 -0.286355,-0.816613 -1.17631,-0.383226 -2.53125,1.25 -1.285366,1.549363 -1.700754,2.848742 -1.125,3.4375 1.211058,1.238411 1.182037,2.843602 -0.03125,2.09375 -0.516196,-0.319028 -1.324885,0.128678 -1.8125,1 -0.719106,1.284969 -1.079582,1.346384 -1.90625,0.28125 -2.226278,-2.868487 -2.342913,-3.615105 -0.46875,-3.125 1.471611,0.384835 1.813815,-0.0074 1.625,-1.84375 -0.379515,-3.69106 -0.445119,-3.84375 -1.5625,-3.84375 -0.582459,0 -0.73619,0.521271 -0.34375,1.15625 0.445627,0.72104 0.293727,0.889423 -0.4375,0.4375 -2.11001,-1.304057 -0.122417,-2.543234 3.0625,-1.90625 2.115512,0.423102 2.892279,0.267097 2.4375,-0.46875 -0.368764,-0.596673 0.23499,-1.366843 1.34375,-1.71875 1.107987,-0.351662 2,-1.049563 2,-1.5625 0,-0.512936 0.679661,-0.9375 1.5,-0.9375 0.820339,0 2.063039,-0.9 2.75,-2 0.686961,-1.1 1.837341,-2 2.5625,-2 z m -8.40625,1.34375 c 0.358594,-0.06029 0.59375,0.156906 0.59375,0.59375 0,0.582459 -0.45,1.0625 -1,1.0625 -0.55,0 -1,-0.194959 -1,-0.4375 0,-0.242541 0.45,-0.722581 1,-1.0625 0.1375,-0.08498 0.286719,-0.136154 0.40625,-0.15625 z M 23.125,20.5625 c 1.466666,0 2.34959,0.30666 1.96875,0.6875 -1.142743,1.142743 -4.65625,1.381056 -4.65625,0.3125 0,-0.546549 1.220833,-1 2.6875,-1 z m 2.59375,3.09375 c 0.354905,0.0041 0.771338,0.09757 1.25,0.28125 0.883581,0.339061 1.34232,1.071116 1,1.625 -0.810575,1.311538 -2.232121,1.281081 -3.0625,-0.0625 -0.690258,-1.116862 -0.252214,-1.856195 0.8125,-1.84375 z M 22.4375,25.5625 c 0.55,0 1,0.194959 1,0.4375 0,0.242541 -0.45,0.722581 -1,1.0625 -0.55,0.339919 -1,0.144959 -1,-0.4375 0,-0.582459 0.45,-1.0625 1,-1.0625 z m 42.71875,2.03125 c 0.972903,0.0034 2.266615,0.311299 3.15625,0.875 0.956115,0.605824 0.568596,0.84375 -1.28125,0.84375 -1.44375,0 -2.858821,-0.39375 -3.15625,-0.875 -0.347228,-0.561827 0.308347,-0.84711 1.28125,-0.84375 z m -42.125,2.96875 c 0.576125,-0.02573 1.441926,0.609114 1.84375,1.65625 0.34679,0.903721 0.468363,1.781638 0.28125,1.96875 -0.47592,0.47592 -2.71875,-1.839634 -2.71875,-2.8125 0,-0.544164 0.248075,-0.797064 0.59375,-0.8125 z M 21.625,37.25 c 0.448261,-0.05236 1.609375,0.334704 2.8125,0.96875 1.377942,0.726174 1.826765,1.312815 1,1.3125 -1.724149,-6.56e-4 -4.672016,-1.672785 -3.96875,-2.25 0.03238,-0.02658 0.09221,-0.02377 0.15625,-0.03125 z m 44.21875,0.6875 c 0.358594,0.01588 0.59375,0.419406 0.59375,1.0625 0,0.857459 -0.45,1.5625 -1,1.5625 -0.55,0 -1,-0.419959 -1,-0.9375 0,-0.517541 0.45,-1.222581 1,-1.5625 0.1375,-0.08498 0.286719,-0.130294 0.40625,-0.125 z m -15.5,0.71875 c -0.556068,0.01863 -1.225907,0.07948 -2.03125,0.1875 -2.256584,0.302671 -4.610401,1.047901 -5.21875,1.65625 -0.780033,0.780033 -0.110538,0.780744 2.21875,-0.03125 2.351506,-0.819739 3.611181,-0.857569 4.375,-0.09375 0.76382,0.76382 -0.174734,1.582022 -3.25,2.8125 -3.621048,1.448856 -4.016539,1.837721 -2.40625,2.46875 2.880504,1.128791 4.187322,1.042969 4.75,-0.34375 0.394333,-0.971834 0.729277,-0.961089 1.46875,0.09375 0.664684,0.948154 1.146984,1.023445 1.625,0.25 0.376209,-0.60872 0.374804,-1.09375 0,-1.09375 -0.374804,0 -0.116376,-0.682004 0.5625,-1.5 0.678876,-0.817996 0.940294,-2.221921 0.59375,-3.125 -0.371029,-0.966889 -1.019296,-1.337137 -2.6875,-1.28125 z M 33.28125,39.5 c 0.26902,-0.07434 0.361259,0.716287 0.59375,2.8125 0.137252,1.2375 -0.100759,2.25 -0.5,2.25 -1.246118,0 -1.778484,-2.617192 -0.84375,-4.09375 0.360818,-0.569967 0.588588,-0.924144 0.75,-0.96875 z m 0.125,41.875 c -0.342991,0.07586 -2.174937,1.419071 -5.46875,4 -3.467269,2.716844 -4.530282,3.047845 -7.90625,2.5 -3.309956,-0.537131 -3.830653,-0.381534 -3.3125,0.96875 0.336303,0.876391 0.0941,1.836292 -0.5625,2.125 -0.656603,0.288707 0.13125,0.277211 1.78125,-0.03125 l 3,-0.5625 -3.75,3.65625 c -4.828217,4.716843 -5.250342,10.24155 -1.09375,14.09375 3.869146,3.5858 5.309985,3.24782 4,-0.9375 -0.725354,-2.31747 -1.51214,-3.22283 -2.5,-2.84375 -1.157729,0.44426 -1.361446,-0.23586 -0.9375,-3.375 0.618629,-4.580678 4.620717,-11.284411 6.78125,-11.375 0.825,-0.03459 3.75,-2.128694 6.5,-4.65625 2.654141,-2.439451 3.811741,-3.63836 3.46875,-3.5625 z m 67.71875,0.4375 c -0.60666,0.09044 -0.63919,0.951196 0.15625,2.4375 0.54346,1.01546 0.7188,3.168354 0.40625,4.8125 -0.48939,2.574352 -0.35702,2.818994 0.9375,1.75 0.82677,-0.682728 1.79435,-0.924395 2.15625,-0.5625 0.36189,0.361895 0.65625,-0.718576 0.65625,-2.375 0,-1.744755 -0.83779,-3.760714 -2,-4.8125 -1.02992,-0.932063 -1.84065,-1.320341 -2.3125,-1.25 z M 74.75,88.59375 c -3.516549,0.06308 -7.480453,0.562429 -9.5,1.40625 -3.147096,1.31494 -6.641612,4.294776 -5.6875,4.84375 0.215876,0.1242 1.275,0.73081 2.375,1.34375 1.120007,0.6241 2.022832,2.16409 2.03125,3.5 0.01369,2.17232 0.728777,2.53561 8,4.0625 13.146608,2.76068 15.85496,3.60827 17.3125,5.5 1.69955,2.20583 6.18578,11.97062 10.21875,22.25 0.73845,1.88217 1.49612,2.94915 1.6875,2.375 0.381,-1.14298 -4.58448,-14.1113 -7.84375,-20.5 -1.126886,-2.20887 -1.62194,-3.76394 -1.09375,-3.4375 0.52819,0.32644 1.51324,-0.0626 2.1875,-0.875 0.97723,-1.17749 0.9612,-1.55661 -0.125,-1.84375 -0.74944,-0.19813 -2.95,-0.90643 -4.875,-1.59375 -5.54858,-1.98113 -11.08346,-3.22116 -16.75,-3.75 -6.543647,-0.61069 -6.827748,-2.06355 -0.5,-2.5625 1.982715,-0.156341 3.109898,-0.274398 3.25,-0.34375 C 75.280614,98.89622 73.838415,98.835985 71,98.75 63.92424,98.53565 64.55227,97.18972 72.4375,95.71875 l 5.5,-1.03125 -6.25,0.1875 c -5.239143,0.15227 -5.994378,-0.01858 -4.5625,-1.0625 0.943003,-0.6875 3.288871,-1.25 5.21875,-1.25 2.62421,0 3.22661,-0.273381 2.375,-1.125 -1.09024,-1.090235 -4.627985,-0.314254 -11.78125,2.65625 -1.759006,0.730449 -1.825982,0.657687 -0.65625,-0.78125 2.092663,-2.574272 7.853689,-3.996179 14.28125,-3.53125 3.24655,0.234834 5.34858,0.06452 4.65625,-0.375 -0.780589,-0.495554 -2.708812,-0.769016 -5,-0.8125 -0.477331,-0.0091 -0.966386,-0.009 -1.46875,0 z M 18.53125,88.6875 c 0.347396,-0.01431 0.732813,0.04306 1.09375,0.1875 0.797733,0.319226 0.571193,0.577016 -0.59375,0.625 -1.054166,0.04342 -1.644791,-0.198958 -1.3125,-0.53125 0.166146,-0.166145 0.465104,-0.266941 0.8125,-0.28125 z m 65,2.28125 c -0.0581,-0.0028 -0.09375,0.03465 -0.09375,0.0625 0,0.273039 1.6875,1.379919 3.75,2.46875 3.31358,1.749296 6.33825,2.72893 5.1875,1.6875 -0.954403,-0.863728 -7.972251,-4.176945 -8.84375,-4.21875 z m 26.5,3.3125 c -0.0843,0.0059 -0.19621,0.23359 -0.3125,0.6875 -0.26648,1.04009 -1.33232,3.29009 -2.375,5 -1.04267,1.70991 -1.87576,3.99375 -1.875,5.09375 0.001,1.45978 0.67054,0.91957 2.46875,-2 1.35502,-2.2 2.42163,-5.35 2.375,-7 -0.0339,-1.200133 -0.14074,-1.791062 -0.28125,-1.78125 z M 3.34375,102.0625 c -0.419977,0.0438 -0.741567,1.17727 -0.71875,2.75 0.050089,3.45246 2.381707,8.13146 3.65625,7.34375 0.414597,-0.25624 1.42001,-0.0365 2.21875,0.46875 0.79874,0.50529 2.1125,0.91455 2.9375,0.90625 1.086604,-0.0109 0.988153,-0.34697 -0.40625,-1.15625 -2.8981796,-1.68202 -6.526792,-6.08926 -6.5625,-8 C 4.45137,103.44496 4.013496,102.41111 3.5,102.09375 3.435813,102.05405 3.403747,102.0562 3.34375,102.0625 z m 55.6875,4.53125 c -0.456815,0.025 -1.140629,0.15147 -2.03125,0.375 -1.696283,0.42574 -2.5625,1.31732 -2.5625,2.6875 0,2.01347 0.06749,2.02683 2.875,-0.25 2.492821,-2.02163 3.089194,-2.88737 1.71875,-2.8125 z M 69.375,109.4375 c -2.088903,0.20939 -9.273529,3.14853 -10.625,4.5 -0.329024,0.32902 2.177511,-0.32562 5.5625,-1.46875 3.38499,-1.14312 5.914114,-2.4697 5.625,-2.9375 -0.05813,-0.094 -0.264085,-0.12371 -0.5625,-0.0937 z m 8.0625,0.25 c -0.453125,0 -0.90625,0.08 -1.25,0.21875 -0.6875,0.27741 -0.125,0.5 1.25,0.5 1.375,0 1.9375,-0.22259 1.25,-0.5 -0.34375,-0.13871 -0.796875,-0.21875 -1.25,-0.21875 z m -25.125,0.15625 -12.6875,0.125 c -6.97728,0.0604 -13.241028,0.45637 -13.9375,0.90625 -2.002509,1.29354 -0.401337,2.83886 1.75,1.6875 1.918782,-1.0269 16.789895,-1.41567 19.1875,-0.5 0.967705,0.36958 1.240587,2.25881 1,6.90625 -0.286596,5.53621 -0.629195,6.4877 -2.46875,6.96875 -3.052812,0.79833 -3.206987,0.11323 -0.5625,-2.53125 2.053998,-2.054 2.131709,-2.36007 0.59375,-2.65625 -0.956184,-0.18414 -1.75,-0.96533 -1.75,-1.75 0,-0.94944 -1.087154,-1.42741 -3.25,-1.40625 -3.000447,0.0294 -3.111553,0.1455 -1.40625,1.4375 1.782174,1.35025 1.793956,1.50638 0.0625,4.4375 -0.987013,1.67088 -1.495179,3.34857 -1.125,3.71875 0.921344,0.92134 5.671206,0.92169 8.84375,0 2.00821,-0.58342 2.775006,-0.38176 3.28125,0.9375 0.810196,2.11133 0.865619,2.05177 -3.40625,2.875 l -3.5,0.6875 2.5,-2.03125 2.5,-2 -4,1.34375 c -7.147962,2.38711 -12.809411,2.77056 -15,1.0625 -1.885623,-1.47026 -1.859694,-1.4889 1,-0.9375 2.694249,0.51951 2.796166,0.44629 1,-0.65625 -1.1,-0.67521 -2.225,-1.49049 -2.5,-1.8125 -0.275,-0.322 -1.4,-1.08133 -2.5,-1.6875 -2.821716,-1.55494 -3.132951,-5.04925 -0.53125,-5.875 1.140049,-0.36183 1.858198,-1.00962 1.59375,-1.4375 -0.264447,-0.42789 1.849789,-0.65736 4.71875,-0.5 5.161803,0.2831 5.157291,0.27392 -1.1875,-0.8125 -3.654005,-0.62568 -7.202409,-1.88991 -8.25,-2.9375 -1.881905,-1.8819 -4.392582,-2.58398 -3.375,-0.9375 0.310886,0.50302 0.0198,1.09756 -0.625,1.3125 -0.821776,0.27392 -0.731779,0.80575 0.3125,1.78125 0.819387,0.76543 1.322647,2.3651 1.09375,3.5625 -0.287999,1.50657 0.66172,3.28672 3.125,5.75 l 3.5625,3.5625 -2.71875,-0.1875 c -2.321709,-0.15702 -2.713511,0.18648 -2.6875,2.4375 0.03618,3.13146 -2.248951,2.82043 -2.71875,-0.375 -0.198689,-1.35143 -1.356063,-2.40271 -3.25,-2.90625 -3.428899,-0.91163 -6.1796916,0.6764 -4.5625,2.625 2.626957,3.16529 -3.405985,3.41612 -6.78125,0.28125 C 2.2159711,128.9748 1.6483857,128.47721 1.5,128.75 l 0,0.6875 c 0.02561,0.19633 0.043344,0.3451 0.09375,0.625 0.223967,1.24367 1.574084,2.37378 3.59375,2.96875 2.524469,0.74367 3.282388,1.52327 3.34375,3.5 0.043421,1.39876 0.316337,1.96875 0.59375,1.28125 0.813967,-2.01722 4.057665,-1.44233 6.6875,1.1875 1.341667,1.34167 2.697917,2.17708 3.03125,1.84375 0.333334,-0.33334 0.59375,-0.0171 0.59375,0.71875 0,0.73586 0.746006,2.18169 1.65625,3.1875 0.208416,0.2303 0.395125,0.40974 0.59375,0.59375 l 4.09375,0 c 0.463788,-0.55358 0.908915,-1.30386 1.375,-2.28125 1.989962,-4.17299 3.097531,-4.32249 6.75,-0.9375 1.516518,1.40547 2.983922,2.32858 3.25,2.0625 0.266078,-0.26608 -0.438392,-1.25626 -1.5625,-2.21875 -1.124109,-0.96249 -1.830667,-2.1286 -1.5625,-2.5625 0.268167,-0.4339 -0.409908,-1.36221 -1.53125,-2.0625 -2.810024,-1.75489 -2.558402,-3.10992 0.46875,-2.53125 2.030576,0.38817 2.290584,0.22821 1.375,-0.875 -0.89542,-1.07892 -0.704915,-1.375 1,-1.375 1.184606,0 2.433417,0.675 2.75,1.5 0.38913,1.01406 1.976301,1.5 4.90625,1.5 2.383697,0 4.597581,0.45 4.9375,1 1.020092,1.65054 5.13743,1.12964 7.65625,-0.96875 1.298431,-1.0817 1.89,-1.9817 1.3125,-2 -0.5775,-0.0183 -1.650314,0.53125 -2.375,1.21875 -1.089531,1.03362 -1.089898,0.86993 0,-0.9375 1.554594,-2.57804 4.964971,-3.70396 6.40625,-2.125 0.731673,0.80157 0.438535,0.91061 -1,0.40625 -1.84014,-0.64517 -1.854214,-0.55858 -0.375,0.9375 1.214927,1.22877 2.526416,1.44065 5.375,0.90625 L 68.71875,133.28125 64.9375,132 c -4.83864,-1.66345 -7.274325,-4.00397 -3.15625,-3.03125 1.651607,0.39012 3.428605,0.21826 4.21875,-0.4375 1.029907,-0.85475 1.91115,-0.76293 3.625,0.4375 1.246006,0.87273 1.812379,1.59375 1.25,1.59375 -0.562378,0 -1.567917,-0.53667 -2.21875,-1.1875 -0.650834,-0.65084 -1.476359,-0.86739 -1.84375,-0.5 -0.367391,0.36739 0.838212,1.28493 2.6875,2.0625 l 3.375,1.4375 -3.46875,1.4375 c -1.9127,0.79917 -5.727886,1.85503 -8.46875,2.34375 l -5,0.875 6,0.40625 6,0.40625 -5.5,1.34375 -5.5,1.3125 5,-0.34375 c 2.75,-0.19555 6.575,0.21858 8.5,0.9375 2.488975,0.92955 2.922272,1.35353 1.5,1.46875 -1.491584,0.12085 -1.237376,0.40756 1,1.125 4.60408,1.47635 15.742654,-0.82137 19.625,-4.0625 2.80785,-2.3441 3.16223,-3.258 3.34375,-8.4375 0.13121,-3.74426 -0.26891,-6.30016 -1.125,-7.15625 -0.731,-0.73101 -1.34375,-1.5578 -1.34375,-1.84375 0,-0.28595 -1.0125,-1.56285 -2.25,-2.84375 -1.95179,-2.02023 -2.84643,-2.2482 -6.75,-1.65625 -5.69033,0.8629 -14.999547,4.19908 -12.90625,4.625 0.866121,0.17623 3.69552,-0.59699 6.3125,-1.71875 2.61698,-1.12177 5.74559,-2.0229 6.9375,-2 1.91041,0.0367 1.70283,0.43844 -1.65625,3.40625 -3.69686,3.26624 -4.113981,3.39657 -14,3.8125 -8.31242,0.34973 -10.637,0.12542 -12.625,-1.21875 -1.340321,-0.90625 -2.620009,-2.20377 -2.84375,-2.875 -0.4711,-1.4133 1.941337,-1.13976 3.03125,0.34375 0.461632,0.62834 0.740379,0.5623 0.75,-0.1875 0.0084,-0.65631 -0.815008,-1.77944 -1.84375,-2.5 C 54.565008,118.65444 53.381478,116.19545 53,113.9375 l -0.6875,-4.09375 z m -1.0625,1.75 c 0.08066,0.007 -0.172342,0.48475 -0.625,1.46875 -0.506022,1.1 -1.162851,2.675 -1.46875,3.5 -0.480445,1.29574 -0.556803,1.2841 -0.625,-0.0625 -0.04342,-0.85738 0.613409,-2.43238 1.46875,-3.5 0.765141,-0.95503 1.169339,-1.41373 1.25,-1.40625 z m 32.375,1 c -2.09509,-0.01 -3.04298,0.35494 -2.625,1.03125 0.3631,0.5875 1.22159,0.83722 1.9375,0.5625 0.71591,-0.27472 2.14029,0.12481 3.15625,0.875 1.20172,0.88736 2.19863,1.0401 2.84375,0.40625 1.41781,-1.39305 -1.29268,-2.8564 -5.3125,-2.875 z m -44.9375,1.0625 c -0.5,0.0364 -0.25,0.26 0.75,0.90625 0.825,0.53316 2.625,0.9214 4,0.875 l 2.5,-0.0625 -2.5,-0.8125 c -1.375,-0.44035 -3.175,-0.8286 -4,-0.875 -0.333333,-0.0187 -0.583333,-0.0435 -0.75,-0.0312 z m -23.09375,1.03125 c -0.740158,-0.014 -1.938624,0.73888 -4.15625,2.375 -1.8637076,1.375 -4.224394,2.5 -5.25,2.5 -1.025605,0 -1.589919,0.45 -1.25,1 1.625342,2.62986 12.962537,-1.66592 11.875,-4.5 -0.339966,-0.88594 -0.643072,-1.36409 -1.21875,-1.375 z M 1.5,115.90625 l 0,2.65625 c 1.526478,0.0641 3.102138,-0.10531 4.375,-0.59375 2.511938,-0.96392 1.820924,-2.18356 -0.9375,-1.65625 -1.119756,0.21405 -2.5117126,0.0341 -3.4375,-0.40625 z m 47.34375,3.90625 c 0.529782,0.0312 1.512626,1.79694 2.46875,4.65625 0.627545,1.87668 0.955675,3.60682 0.71875,3.84375 -0.65146,0.65146 -3.59375,-5.40655 -3.59375,-7.40625 0,-0.75985 0.16544,-1.10793 0.40625,-1.09375 z m -34.5,0.9375 c -0.300587,0.0396 -0.553792,0.27064 -0.8125,0.6875 -0.470402,0.75796 -1.357258,1.06542 -1.96875,0.6875 -0.611491,-0.37792 -1.125,-0.26671 -1.125,0.21875 0,0.48546 1.6875,1.3062 3.75,1.84375 4.736864,1.23458 5.220152,0.86998 2.4375,-1.90625 -1.122906,-1.12031 -1.780272,-1.59728 -2.28125,-1.53125 z M 1.5,122.9375 l 0,4.5 c 0.7166154,-0.005 0.9375,-0.76647 0.9375,-2.375 0,-1.14051 -0.3907013,-1.86389 -0.9375,-2.125 z m 72.03125,14.75 c 0.347397,-0.0143 0.732815,0.0431 1.09375,0.1875 0.79773,0.31922 0.5712,0.57702 -0.59375,0.625 -1.054163,0.0434 -1.644791,-0.19895 -1.3125,-0.53125 0.166146,-0.16615 0.465103,-0.26694 0.8125,-0.28125 z m -65.625,2.375 c -0.17295,0.0156 -0.265285,0.7625 -0.25,2 0.020379,1.65 0.246456,2.19172 0.5,1.21875 0.253543,-0.97297 0.211423,-2.32297 -0.0625,-3 -0.068481,-0.16926 -0.12985,-0.22395 -0.1875,-0.21875 z m 72.625,1.625 c 0.347396,-0.0143 0.732815,0.0431 1.09375,0.1875 0.79773,0.31922 0.5712,0.57702 -0.59375,0.625 -1.05416,0.0434 -1.64479,-0.19895 -1.3125,-0.53125 0.16615,-0.16615 0.465104,-0.26694 0.8125,-0.28125 z"
     id="path2487"
     inkscape:connector-curvature="0" />
</svg>
